<?xml version="1.0" standalone="no"?><!DOCTYPE svg PUBLIC "-//W3C//DTD SVG 1.1//EN" "http://www.w3.org/Graphics/SVG/1.1/DTD/svg11.dtd"><svg t="1641751569670" class="icon" viewBox="0 0 1024 1024" version="1.1" xmlns="http://www.w3.org/2000/svg" p-id="4640" xmlns:xlink="http://www.w3.org/1999/xlink" width="200" height="200"><defs><style type="text/css"></style></defs><path d="M722.055 120.875c-89.793 0-169.909 49.429-210.04 125.049l-0.029 0c-40.131-75.62-120.262-125.049-210.041-125.049C171.293 120.875 65 225.509 65 354.109c0 62.408 8.803 126.417 77.076 210.229 66.526 81.615 354.515 325.355 369.561 338.16l0 0.626c0 0 0.262-0.219 0.364-0.306 0.087 0.087 0.364 0.306 0.364 0.306l0-0.626c15.017-12.805 303.035-256.545 369.532-338.16C950.197 480.526 959 416.518 959 354.109 959 225.509 852.707 120.875 722.055 120.875zM858.789 545.51c-53.532 65.712-259.543 243.697-345.174 316.785l-0.059-0.059-1.629 1.397C370.319 742.906 209.62 600.047 165.167 545.51c-64.94-79.724-70.368-138.262-70.368-191.4 0-112.172 92.921-203.435 207.145-203.435 77.57 0 147.967 41.848 183.718 109.218l26.308 49.574 26.337-49.574c35.78-67.37 106.191-109.218 183.747-109.218 114.224 0 207.146 91.263 207.146 203.435C929.2 407.248 923.758 465.786 858.789 545.51z" p-id="4641"></path></svg>